<svg width="20" height="24" viewBox="0 0 24 24" fill="none" xmlns="http://www.w3.org/2000/svg">
<path d="M17.6401 9.64114L19.4111 6.58733C19.5651 6.28963 19.4496 5.92471 19.1608 5.77106C18.8817 5.62701 18.5352 5.71344 18.362 5.98233L16.5525 9.09376C13.7997 7.93177 10.7005 7.93177 7.94772 9.09376L6.13822 5.98233C5.95535 5.70384 5.57997 5.61741 5.30085 5.79027C5.03135 5.96312 4.94472 6.30884 5.0891 6.58733L6.8601 9.64114C3.87635 11.3409 1.9321 14.4043 1.6626 17.823H22.8376C22.5681 14.4043 20.6238 11.3409 17.6401 9.64114ZM7.4376 15.1822C6.77347 15.1822 6.23447 14.6444 6.23447 13.9818C6.23447 13.3192 6.77347 12.7814 7.4376 12.7814C8.10172 12.7814 8.64072 13.3192 8.64072 13.9818C8.64072 14.6444 8.10172 15.1822 7.4376 15.1822ZM17.0626 15.1822C16.3985 15.1822 15.8595 14.6444 15.8595 13.9818C15.8595 13.3192 16.3985 12.7814 17.0626 12.7814C17.7267 12.7814 18.2657 13.3192 18.2657 13.9818C18.2657 14.6444 17.7267 15.1822 17.0626 15.1822Z" fill="#808080"/>
</svg>
