<svg width="88" height="90" viewBox="0 0 88 90" fill="none" xmlns="http://www.w3.org/2000/svg">
<path d="M37.8772 72.5481C37.8772 72.5481 37.7265 80.3841 38.3293 88.2202C37.7265 87.4899 42.2705 88.0463 46.9072 87.8609C47.452 87.9188 47.3013 79.6307 47.6027 72.8495C46.629 72.977 42.5487 72.4206 37.541 72.8842C37.7265 72.6988 37.7265 72.6988 37.7265 72.6988" stroke="black"/>
<path d="M37.7267 73.2011C37.7217 73.2061 37.7417 72.9499 37.7367 72.6787C37.7267 72.6485 37.7267 73.1509 37.6764 73.6833C37.7602 73.6922 37.926 73.1452 38.1589 72.7099C38.1514 72.6829 37.9074 73.4364 37.6792 74.1899C37.7087 74.2057 38.2327 73.5241 38.6131 72.6629C38.6135 72.5871 38.2594 73.6811 37.7043 74.5963C37.7515 74.708 38.4588 73.6537 39.0666 72.6739C39.3072 72.7569 38.4879 73.8383 37.6395 75.1813C37.5676 75.3376 38.6392 74.0182 39.7426 72.6033C39.6072 72.8424 38.8465 74.2416 37.6189 75.5331C37.6491 75.7126 38.9469 74.322 40.3222 72.5824C40.0387 72.8272 39.1181 74.5425 37.5983 76.215C37.9097 76.0319 39.2367 74.4569 40.5179 72.47C40.4562 72.8977 39.3401 74.4594 37.8758 76.9162C37.5157 76.8755 39.4349 74.8663 41.0905 72.5933C41.0865 72.6988 39.2083 74.6758 37.6133 77.3896C37.428 76.9806 39.7387 74.7202 41.691 72.878C41.6949 72.6352 39.7426 75.2103 37.7903 77.7855C37.5932 77.455 39.5894 75.0769 42.3195 72.632C41.7664 72.9105 39.9936 75.6733 37.7973 78.2242C37.9478 78.3717 40.3882 75.1666 42.3125 72.9199C42.7626 73.009 39.9344 75.4024 37.8818 78.5714C37.7267 78.8072 40.0075 75.5512 42.9341 72.7795C43.2646 72.6988 40.0729 76.2174 37.304 79.567C37.7267 79.4043 40.392 76.3147 43.3204 72.6111C43.2175 72.7903 40.9297 76.0319 37.3606 79.7311C37.8214 80.11 41.1833 75.8361 44.2611 72.2252C44.4657 72.4033 41.0962 76.4661 38.1207 80.529C37.4215 80.2335 41.1432 76.5678 44.458 73.1056C44.0323 73.0152 41.4597 76.5063 37.1992 80.7358C37.7267 80.7358 41.7134 76.7173 45.374 72.9162C44.8229 72.8113 40.9373 76.5185 37.7267 81.2381C37.1481 81.2381 41.2841 77.0841 45.4202 72.6988C46.0138 72.1014 41.0339 76.9806 37.9656 81.9793C37.3585 81.6177 41.998 77.3423 45.6558 72.3306C45.6446 73.2046 42.3812 77.9766 37.3473 82.4956C37.9861 81.8535 41.6005 76.9519 46.2526 72.5691C46.779 72.4319 41.4521 77.1881 37.9936 82.6116C37.8634 83.0184 42.9103 77.3117 46.3165 73.1089C47.5619 71.9965 41.942 77.973 37.0244 83.3878C37.59 82.8372 42.6368 78.3609 47.2736 72.6542C47.5619 73.0606 41.8016 78.4754 37.8671 83.6092C37.7267 83.2028 41.8165 78.7265 46.8634 73.9768C47.0001 73.282 42.5039 78.9777 37.4458 84.2519C38.2736 84.7988 41.6798 79.0921 46.4532 73.9323C46.7192 74.3462 42.0825 79.0586 37.7267 85.3161C38.2736 85.3011 42.7736 79.321 46.8634 74.4346C47.1406 74.1462 42.6443 80.1227 37.8671 84.8352C37.1798 85.53 41.9532 80.7803 46.8634 75.3471C46.2979 75.7721 42.5039 81.0464 37.0244 85.0566C38.1368 85.6222 42.9103 80.8725 46.4532 76.1228C46.4383 75.0104 41.8016 81.4083 37.8671 85.8398C37.59 86.5346 41.9532 81.5115 47.547 76.6251C46.7192 75.5127 42.5039 81.4892 37.5862 87.3253C37.3165 86.3533 42.2267 81.3302 46.59 76.5805C47.5619 76.9982 42.3634 81.7106 38.2885 87.2658C37.4532 87.1291 42.5001 81.6958 46.3165 77.0829C47.5619 77.0791 42.7848 82.6343 37.7267 87.7681C37.8634 87.6314 41.9532 82.8817 47.1368 77.9953C46.3328 77.0546 41.9401 82.3446 38.2148 87.7681C38.085 88.1573 42.348 83.2556 46.3515 78.0945C46.3678 78.7301 43.3573 82.9962 39.0822 88.1475C39.1937 87.4 43.2196 83.6155 47.3683 78.6038C47.478 79.0849 43.4539 83.3668 38.952 87.4097C39.3066 88.1153 42.5169 83.1513 47.3473 79.1131C47.1126 78.7789 43.7895 83.0486 39.1166 87.6556C39.5703 88.203 43.1221 83.6409 46.5653 79.1876C46.5782 79.6256 43.2671 83.5386 40.0616 87.5571C40.3705 87.6664 43.9905 83.7974 47.407 80.1317C47.2956 80.4305 44.1231 84.1978 40.6551 88.1621C41.034 88.0523 44.1118 83.8731 47.1896 80.641C46.9086 80.3697 44.3462 84.3435 40.9602 87.4936C41.1432 87.9436 43.9839 84.5031 47.1756 81.4135C46.662 81.4071 44.2312 84.2495 41.5467 87.5991C41.9542 87.526 44.3157 84.9964 47.0808 81.6597C46.6899 81.9731 44.6373 85.0645 42.1194 87.9232C42.2668 87.6207 44.6335 84.7105 47.1476 81.8741C47.2119 82.3133 44.8038 85.2172 42.4663 87.6975C42.5407 87.7681 44.5369 85.2566 47.1336 82.4781C47.1274 82.8086 44.7297 85.3202 43.1591 87.959C43.0358 87.5889 44.9283 85.6869 47.0599 83.4863C47.1135 83.4173 45.4052 85.7344 43.6403 87.9948C43.7418 87.9264 45.1336 85.6006 47.0529 83.6969C46.9504 83.6005 45.337 85.6594 44.2706 87.5692C44.2089 87.8139 45.3071 86.1473 46.9544 84.1147C46.9145 84.3375 45.7371 86.1812 44.3885 87.8537C44.4046 87.613 45.7024 86.1836 47.0777 84.5991C46.8206 84.862 45.9522 86.0816 45.1915 87.804C44.9842 87.7681 46.0558 86.4805 46.9683 85.1293C46.8548 85.1112 46.3552 86.3961 45.4778 87.6518C45.511 87.7184 46.2183 86.7884 46.8758 85.8086C46.9554 85.8259 46.512 86.7188 45.957 87.7235C46.0599 87.8399 46.5839 87.0865 47.0181 86.1714C47.0635 86.2929 46.7561 86.9988 46.4804 87.784C46.4674 87.7123 46.8008 87.3105 46.9554 86.7523C47.0403 86.7735 46.97 87.2558 46.9599 87.7179C46.9901 87.7782 47.0102 87.517 46.975 87.2859C47.0001 87.2658 47.0001 87.2658 47.0001 87.2658" stroke="black" stroke-width="0.5"/>
<path d="M39.4428 1C39.4428 1 39.8868 5.08933 39.6762 9.42415C39.5943 9.77325 37.0377 18.1297 33.9247 26.4862C35.2533 27.7996 26.0572 30.9292 16.2818 33.2866C16.6746 33.2866 24.8687 32.9002 35.6016 32.7091C35.6664 32.5138 34.4763 35.7032 33.0269 38.5038C33.1391 38.6808 28.1917 44.2381 24.3177 51.3287C24.1643 51.4138 17.2519 53.3991 12.1675 54.862C11.0536 54.9287 21.6954 53.9506 31.1541 52.9726C31.2864 54.0236 29.0666 55.7921 26.5223 58.4042C25.95 57.9971 20.9877 62.4921 14.5502 66.8397C14.9988 66.9841 11.1429 68.0701 7.51278 69.7582C7.30464 69.4659 4.04604 71.2949 1 72.8405C4.52009 70.2181 38.4223 73.5256 83.0739 76.0063C83.5655 72.6988 80.5782 70.4254 77.004 68.0681C76.2632 67.5857 65.251 62.7492 55.7067 58.1574C54.8394 57.5197 54.7281 55.665 54.7281 53.9958C54.0326 54.5151 61.9614 53.5414 67.9427 53.4023C68.553 53.5322 65.2799 50.9545 61.8363 48.5475C61.849 47.2571 54.5373 42.1801 45.5706 35.8618C45.3824 36.1063 46.1511 34.1407 46.807 32.4009C46.1115 32.1661 55.1531 32.1661 64.5425 31.6444C64.4638 32.2447 57.9894 31.0356 54.7281 28.3838C54.1541 29.1189 53.4373 21.3652 43.3442 15.6855C43.9482 15.5986 40.1085 8.20812 39.8519 1.6657C39.8519 1.40914 39.8519 1.40914 39.8519 1.40914" stroke="#1E841C" />
<path d="M40.3701 5.02408C40.3701 4.86043 40.3117 3.02033 40.6625 1.01657C40.3352 0.689266 40.0427 5.26956 39.9139 9.44072C40.2021 9.23074 40.3309 7.12301 40.3033 5.13262C40.4988 5.04086 39.3909 9.56031 39.3029 13.5698C38.7448 13.6571 39.9054 11.7029 40.2807 9.66142C40.4089 9.39702 39.3615 13.8465 37.4149 17.6666C37.6846 17.9241 38.5068 15.9058 39.9139 13.5698C39.568 13.1393 38.2599 18.5081 36.021 22.8679C36.6934 22.0041 39.9355 19.2825 43.5605 16.7523C44.3927 16.4652 39.2152 21.5658 35.5368 26.8028C35.2715 27.0826 41.4492 23.4838 47.1963 18.7367C47.9208 19.3485 38.7796 23.6405 30.544 27.9326C32.2531 27.3101 41.3991 23.9871 49.5406 22.6732C49.3475 20.9115 38.2 24.3813 28.7291 29.2883C27.771 29.0229 41.6288 26.1337 52.5666 25.6335C53.2863 23.3566 38.0819 26.606 23.485 30.7667C24.4256 29.7969 41.6667 28.8684 55.5774 26.6079C56.13 25.7905 38.4575 30.9392 18.5598 31.6376C19.6006 30.0105 39.1011 29.0201 61.0421 29.6567C59.7096 28.7683 40.2214 29.0135 15.8473 31.9238C16.2545 30.4066 42.7131 32.4258 66.7661 32.5206C63.9575 29.829 42.7399 32.7906 18.4278 30.8894C21.4354 32.2591 42.1609 31.1527 59.2989 33.2353C60.4947 33.4777 42.8773 31.5521 24.5408 32.1435C24.2247 31.2387 38.7638 31.9552 56.4639 32.9877C55.3166 30.6541 43.4038 31.9169 28.7204 33.4568C28.2098 33.2829 40.1221 31.2596 52.2681 31.3386C52.3845 32.8177 41.4897 31.533 33.1242 32.194C31.9175 32.3368 39.5674 33.6085 45.789 35.023C46.1116 35.9118 40.9155 34.2402 36.0368 32.1453C35.5187 31.6015 42.1724 35.0391 49.9938 38.1848C49.0736 38.1996 41.0353 37.9693 33.1578 37.4174C33.0876 37.1163 43.5786 39.7792 53.4819 40.2876C52.8944 40.9152 41.4557 40.7726 30.4487 41.2776C31.8121 42.0613 44.0225 40.9953 56.9825 42.1783C55.6904 41.8433 42.6891 42.7623 28.3318 44.7661C30.3632 43.6148 44.9672 44.4937 59.2668 45.3726C59.2447 45.046 43.2748 45.726 25.6721 46.406C27.3376 48.4637 46.3813 48.3201 63.9877 46.7392C61.7638 47.4352 45.3883 50.7103 24.8113 52.0755C25.2241 52.1991 45.0415 52.2507 64.8588 52.3022C65.6427 51.5602 42.9131 52.1269 18.8193 49.5105C21.125 51.7841 44.4749 53.121 67.3381 54.9446C70.3416 52.9561 43.4034 55.3653 16.4652 50.3795C17.4289 53.5025 42.0024 54.698 64.6485 52.0387C63.6012 51.3898 38.4703 53.8707 13.3394 51.639C11.8149 52.348 37.5837 54.3479 57.6254 52.0525C60.0117 51.2951 38.9982 53.7934 16.6712 54.1025C14.6628 54.8878 37.3747 55.6481 53.4118 57.9789C53.6075 55.4262 37.7748 55.9243 18.4071 54.6549C19.3907 52.7721 37.6504 55.6746 57.8699 57.7931C58.6926 57.2034 41.9339 57.4405 24.4689 52.3809C25.2924 51.8323 44.2006 58.0532 63.5009 60.352C62.7165 59.6828 43.6177 56.1301 28.7646 53.9926C26.0897 52.4585 45.6483 59.2595 64.8134 61.7325C66.3872 62.1639 48.126 58.713 30.2204 53.8398C33.1851 51.9017 49.0498 58.8895 70.058 65.8773C70.9285 63.4242 47.2429 60.5472 27.4747 55.4939C27.0395 59.5678 50.8585 61.3957 71.8312 67.0188C74.7462 68.105 46.9087 62.8597 21.1062 59.6494C22.5939 60.6669 49.1757 64.8034 79.5887 69.4872C75.0672 66.096 50.0704 64.0052 16.9106 61.9144C16.14 63.043 52.5906 68.711 79.7324 70.0348C80.9736 66.749 44.8733 66.3761 16.6589 67.9746C13.2618 67.3546 50.6404 70.1366 87.3248 75.0014C81.4927 71.4606 44.8638 68.3875 8.23498 70.6607C6.06174 68.4088 44.4226 70.6788 79.8858 74.3976C80.6102 69.0743 37.2973 75.3744 4.222 73.7994C4.10388 73.7206 36.2735 73.7206 72.932 70.7281C79.5077 72.2244 38.3998 70.0981 4.37951 70.0981C7.13578 74.9019 39.2661 71.555 72.0657 70.8856C73.3651 70.9644 38.7148 69.7043 6.58453 70.3344C8.55329 72.2244 36.9035 73.9963 69.3882 69.8618C67.1438 72.7756 40.6836 74.4294 12.0183 73.3269C12.1365 69.665 40.8017 71.2006 63.3244 71.2006C65.8051 71.7519 40.7623 71.2794 18.5546 70.8069C18.0428 70.4919 37.9667 70.0587 62.2219 71.7912C62.1038 70.2556 40.4473 71.0431 21.5472 73.4056C21.5472 70.8069 40.3292 70.8069 55.2131 70.4525C55.725 72.2244 42.1798 70.6494 26.1147 73.4844C26.0359 71.6731 38.7148 73.3269 53.8743 73.0513C53.9925 73.1694 40.7623 71.0431 28.7135 71.2794C29.0285 71.24 39.6598 72.0275 48.5193 72.4212C49.4249 72.6969 40.4473 72.5394 32.8873 72.3819C33.3598 72.1062 39.2661 72.6969 44.9361 72.3425C45.0149 71.8306 41.0773 71.9881 37.6123 71.9881C37.4154 72.3819 39.1086 72.1456 41.2742 72.1456C41.2348 72.2244 41.2348 72.2244 41.2348 72.2244" stroke="#1E841C" stroke-width="0.7"/>
</svg>
